# This file uses centimeters as units for non-parametric coordinates.

v -0.074059 0.024574 -4.414451
v 2.582293 0.024574 -4.414451
v -0.074059 0.660930 -4.414451
v 2.582293 0.660930 -4.414451
v -0.074059 0.660930 -7.850244
v 2.582293 0.660930 -7.850244
v -0.074059 0.024574 -7.850244
v 2.582293 0.024574 -7.850244
v -0.019436 0.660930 -4.485102
v 2.527670 0.660930 -4.485102
v 2.527670 0.660930 -7.779593
v -0.019436 0.660930 -7.779593
v -0.019436 0.129581 -4.485102
v 2.527670 0.129581 -4.485102
v 2.527670 0.131124 -7.779593
v -0.019436 0.131124 -7.779593
v 2.165450 0.660930 -4.414451
v 2.164862 0.660930 -4.485102
v 2.164862 0.129581 -4.485102
v 2.164862 0.131124 -7.779593
v 2.164862 0.660930 -7.779593
v 2.203924 0.660930 -7.850244
v 2.203924 0.024574 -7.850244
v 2.203924 0.024574 -4.414451
v 0.406648 0.660930 -4.414451
v 0.406029 0.660930 -4.485102
v 0.406029 0.129581 -4.485102
v 0.406029 0.131124 -7.779593
v 0.406029 0.660930 -7.779593
v 0.369654 0.660930 -7.850244
v 0.369654 0.024574 -7.850244
v 0.369654 0.024574 -4.414451
v 2.582293 0.129596 -4.414451
v 2.165156 0.129685 -4.414525
v 0.405525 0.129685 -4.414525
v -0.074059 0.129596 -4.414451
v -0.074059 0.129596 -7.850244
v 0.369654 0.129596 -7.850244
v 2.203924 0.129596 -7.850244
v 2.582293 0.129596 -7.850244
vt 0.375000 0.000000
vt 0.625000 0.000000
vt 0.375000 0.250000
vt 0.625000 0.250000
vt 0.375000 0.500000
vt 0.625000 0.500000
vt 0.375000 0.750000
vt 0.625000 0.750000
vt 0.375000 1.000000
vt 0.625000 1.000000
vt 0.875000 0.000000
vt 0.875000 0.250000
vt 0.125000 0.000000
vt 0.125000 0.250000
vt 0.375000 0.250000
vt 0.625000 0.250000
vt 0.625000 0.500000
vt 0.375000 0.500000
vt 0.375000 0.250000
vt 0.625000 0.250000
vt 0.625000 0.500000
vt 0.375000 0.500000
vt 0.589390 0.250000
vt 0.589390 0.250000
vt 0.589390 0.250000
vt 0.589390 0.500000
vt 0.589390 0.500000
vt 0.589390 0.500000
vt 0.589390 0.750000
vt 0.589390 0.000000
vt 0.589390 1.000000
vt 0.416760 0.250000
vt 0.416760 0.250000
vt 0.416760 0.250000
vt 0.416760 0.500000
vt 0.416760 0.500000
vt 0.416760 0.500000
vt 0.416760 0.750000
vt 0.416760 0.000000
vt 0.416760 1.000000
vt 0.625000 0.041259
vt 0.589390 0.041259
vt 0.416760 0.041259
vt 0.375000 0.041259
vt 0.125000 0.041259
vt 0.375000 0.708741
vt 0.416760 0.708741
vt 0.589390 0.708741
vt 0.625000 0.708741
vt 0.875000 0.041259
vt 0.000000 0.000000
vt 1.000000 0.000000
vt 1.000000 1.000000
vt 0.000000 1.000000
vn 0.000080 0.000338 1.000000
vn 0.000018 0.000622 1.000000
vn 0.000047 0.000275 1.000000
vn 0.000078 -0.000004 1.000000
vn 0.000000 1.000000 0.000469
vn 0.000000 1.000000 0.000435
vn 0.000000 1.000000 0.000469
vn 0.000000 1.000000 0.000469
vn 0.000000 0.000000 -1.000000
vn 0.000000 0.000000 -1.000000
vn 0.000000 0.000000 -1.000000
vn 0.000000 0.000000 -1.000000
vn 0.000000 -1.000000 0.000000
vn 0.000000 -1.000000 0.000000
vn 0.000000 -1.000000 0.000000
vn 0.000000 -1.000000 0.000000
vn 1.000000 0.000000 0.000000
vn 1.000000 0.000000 0.000000
vn 1.000000 0.000000 0.000000
vn 1.000000 0.000000 0.000000
vn -1.000000 0.000000 0.000000
vn -1.000000 0.000000 0.000000
vn -1.000000 0.000000 0.000000
vn -1.000000 0.000000 0.000000
vn 0.000000 1.000000 0.000000
vn 0.000000 1.000000 0.000000
vn 0.000000 1.000000 0.000000
vn 0.000000 1.000000 0.000000
vn 0.000000 1.000000 0.000000
vn 0.000000 1.000000 0.000000
vn 0.000000 1.000000 0.000000
vn 0.000000 1.000000 0.000000
vn 0.000000 1.000000 0.000000
vn 0.000000 1.000000 0.000000
vn 0.000000 1.000000 0.000000
vn 0.000000 1.000000 -0.000000
vn 0.000000 1.000000 0.000000
vn 0.000000 1.000000 0.000000
vn 0.000000 1.000000 0.000000
vn 0.000000 1.000000 0.000000
vn 0.000000 0.000000 -1.000000
vn 0.000000 0.000000 -1.000000
vn 0.000000 0.000000 -1.000000
vn 0.000000 0.000000 -1.000000
vn -1.000000 0.000000 0.000000
vn -1.000000 0.000000 0.000000
vn -1.000000 0.000000 0.000000
vn -1.000000 0.000000 0.000000
vn 0.000000 0.000000 1.000000
vn 0.000000 0.000000 1.000000
vn 0.000000 0.000000 1.000000
vn 0.000000 0.000000 1.000000
vn 1.000000 0.000000 0.000000
vn 1.000000 0.000000 0.000000
vn 1.000000 0.000000 0.000000
vn 1.000000 0.000000 0.000000
vn 0.000000 1.000000 -0.000000
vn 0.000000 1.000000 -0.000000
vn 0.000000 1.000000 -0.000000
vn 0.000000 1.000000 -0.000000
vn 0.000000 0.000000 -1.000000
vn 0.000000 0.000000 -1.000000
vn 0.000000 0.000000 -1.000000
vn 0.000000 0.000000 -1.000000
vn 0.000000 1.000000 0.000469
vn 0.000000 1.000000 0.000434
vn 0.000000 1.000000 0.000469
vn 0.000000 1.000000 0.000469
vn 0.000000 0.000000 1.000000
vn 0.000000 0.000000 1.000000
vn 0.000000 0.000000 1.000000
vn 0.000000 0.000000 1.000000
vn 0.000000 1.000000 -0.000000
vn 0.000000 1.000000 -0.000000
vn 0.000000 1.000000 -0.000000
vn 0.000000 1.000000 -0.000000
vn 0.000000 0.000000 -1.000000
vn 0.000000 0.000000 -1.000000
vn 0.000000 0.000000 -1.000000
vn 0.000000 0.000000 -1.000000
vn 0.000000 -1.000000 0.000000
vn 0.000000 -1.000000 0.000000
vn 0.000000 -1.000000 0.000000
vn 0.000000 -1.000000 0.000000
vn -0.000051 0.000300 1.000000
vn -0.000018 0.000630 1.000000
vn -0.000093 0.000335 1.000000
vn -0.000089 -0.000005 1.000000
vn -0.000089 -0.000070 1.000000
vn -0.000089 -0.000070 1.000000
vn 0.000077 -0.000070 1.000000
vn 0.000077 -0.000070 1.000000
vn -1.000000 0.000000 0.000000
vn -1.000000 0.000000 0.000000
vn 0.000000 0.000000 -1.000000
vn 0.000000 0.000000 -1.000000
vn 0.000000 0.000000 -1.000000
vn 0.000000 0.000000 -1.000000
vn 1.000000 0.000000 0.000000
vn 1.000000 0.000000 0.000000
vn 0.000000 0.999999 -0.001476
vn 0.000000 0.999999 -0.001476
vn 0.999999 -0.001057 -0.000811
vn 0.999999 -0.001057 -0.000811
vn 0.999999 -0.001057 -0.000811
vn 0.999999 -0.001057 -0.000811
vn -0.999980 0.000277 0.006251
vn -0.999980 0.000277 0.006252
vn -0.999980 0.000277 0.006251
vn -0.999980 0.000277 0.006251
s 1
f 1/1/1 32/39/2 35/43/3 36/44/4
s 2
f 13/19/5 27/34/6 28/35/7 16/22/8
s 3
f 37/46/9 38/47/10 31/38/11 7/7/12
s 4
f 7/7/13 31/38/14 32/40/15 1/9/16
s 5
f 2/2/17 8/11/18 40/50/19 33/41/20
s 6
f 7/13/21 1/1/22 36/44/23 37/45/24
s off
f 3/3/25 25/32/26 26/33/27 9/15/28
f 4/4/29 6/6/30 11/17/31 10/16/32
s 7
f 30/37/33 5/5/34 12/18/35 29/36/36
s off
f 5/5/37 3/3/38 9/15/39 12/18/40
f 9/15/41 26/33/42 27/34/43 13/19/44
f 10/16/45 11/17/46 15/21/47 14/20/48
s 8
f 29/36/49 12/18/50 16/22/51 28/35/52
s off
f 12/18/53 9/15/54 13/19/55 16/22/56
f 17/23/57 4/4/58 10/16/59 18/24/60
f 19/25/61 18/24/62 10/16/63 14/20/64
s 2
f 20/26/65 19/25/66 14/20/67 15/21/68
s 8
f 11/17/69 21/27/70 20/26/71 15/21/72
s 7
f 6/6/73 22/28/74 21/27/75 11/17/76
s 3
f 23/29/77 39/48/78 40/49/79 8/8/80
s 4
f 24/31/81 23/29/82 8/8/83 2/10/84
s 1
f 34/42/85 24/30/86 2/2/87 33/41/88
s 2
f 28/35/7 27/34/6 19/25/66 20/26/65
s 8
f 21/27/70 29/36/49 28/35/52 20/26/71
s 7
f 22/28/74 30/37/33 29/36/36 21/27/75
s 3
f 31/38/11 38/47/10 39/48/78 23/29/77
s 4
f 32/40/15 31/38/14 23/29/82 24/31/81
s 1
f 35/43/3 32/39/2 24/30/86 34/42/85
f 17/23/89 34/42/85 33/41/88 4/4/90
f 36/44/4 35/43/3 25/32/91 3/3/92
s 6
f 37/45/24 36/44/23 3/3/93 5/14/94
s 3
f 5/5/95 30/37/96 38/47/10 37/46/9
f 39/48/78 38/47/10 30/37/96 22/28/97
f 40/49/79 39/48/78 22/28/97 6/6/98
s 5
f 33/41/20 40/50/19 6/12/99 4/4/100
s 2
f 19/51/66 27/52/6 35/53/101 34/54/102
s off
f 26/33/103 25/32/104 35/53/105 27/34/106
f 18/24/107 19/51/108 34/42/109 17/23/110
