# This file uses centimeters as units for non-parametric coordinates.

mtllib toilette.mtl
g default
v -0.074059 0.024574 -4.414451
v 2.582293 0.024574 -4.414451
v -0.074059 0.660930 -4.414451
v 2.582293 0.660930 -4.414451
v -0.074059 0.660930 -7.850244
v 2.582293 0.660930 -7.850244
v -0.074059 0.024574 -7.850244
v 2.582293 0.024574 -7.850244
v -0.019436 0.660930 -4.485102
v 2.527670 0.660930 -4.485102
v 2.527670 0.660930 -7.779593
v -0.019436 0.660930 -7.779593
v -0.019436 0.129581 -4.485102
v 2.527670 0.129581 -4.485102
v 2.527670 0.131124 -7.779593
v -0.019436 0.131124 -7.779593
v 2.165450 0.660930 -4.414451
v 2.164862 0.660930 -4.485102
v 2.164862 0.129581 -4.485102
v 2.164862 0.131124 -7.779593
v 2.164862 0.660930 -7.779593
v 2.203924 0.660930 -7.850244
v 2.203924 0.024574 -7.850244
v 2.203924 0.024574 -4.414451
v 0.406648 0.660930 -4.414451
v 0.406029 0.660930 -4.485102
v 0.406029 0.129581 -4.485102
v 0.406029 0.131124 -7.779593
v 0.406029 0.660930 -7.779593
v 0.369654 0.660930 -7.850244
v 0.369654 0.024574 -7.850244
v 0.369654 0.024574 -4.414451
v 2.582293 0.129596 -4.414451
v 2.165156 0.129685 -4.414525
v 0.405525 0.129685 -4.414525
v -0.074059 0.129596 -4.414451
v -0.074059 0.129596 -7.850244
v 0.369654 0.129596 -7.850244
v 2.203924 0.129596 -7.850244
v 2.582293 0.129596 -7.850244
vt 0.709441 0.265336
vt 0.968910 0.265336
vt 0.968910 0.308158
vt 0.709441 0.308158
vt 0.968910 0.524806
vt 0.709441 0.524806
vt 0.444015 0.265337
vt 0.703485 0.265337
vt 0.703485 0.308158
vt 0.444015 0.308158
vt 0.703485 0.524806
vt 0.444015 0.524806
vt 0.474214 0.528681
vt 0.474214 0.777479
vt 0.258190 0.777479
vt 0.257561 0.528681
vt 0.920757 0.528681
vt 0.920757 0.777479
vt 0.704103 0.777479
vt 0.704732 0.528681
vt 0.880000 0.998008
vt 0.874664 0.998008
vt 0.874670 0.781397
vt 0.880000 0.781354
vt 0.863372 0.998008
vt 0.863372 0.781354
vt 0.868702 0.781397
vt 0.868708 0.998008
vt 0.001934 0.534011
vt 0.043493 0.534011
vt 0.043493 0.782809
vt 0.001934 0.782809
vt 0.215293 0.534011
vt 0.215293 0.782809
vt 0.043444 0.528681
vt 0.215322 0.528681
vt 0.250732 0.534011
vt 0.250732 0.782809
vt 0.535704 0.001992
vt 0.579045 0.001992
vt 0.579045 0.261461
vt 0.535704 0.261461
vt 0.758214 0.001992
vt 0.758214 0.261461
vt 0.795173 0.001992
vt 0.795173 0.261461
vt 0.178590 0.265337
vt 0.225545 0.265337
vt 0.225484 0.270672
vt 0.183925 0.270672
vt 0.178590 0.524806
vt 0.183925 0.519470
vt 0.221931 0.524806
vt 0.225484 0.519470
vt 0.401100 0.524806
vt 0.397285 0.519470
vt 0.438059 0.524806
vt 0.432723 0.519470
vt 0.438059 0.265337
vt 0.432723 0.270672
vt 0.397342 0.265337
vt 0.397285 0.270672
vt 0.001934 0.001992
vt 0.045275 0.001992
vt 0.048779 0.044850
vt 0.001934 0.044814
vt 0.224445 0.001992
vt 0.220658 0.044850
vt 0.048889 0.261461
vt 0.001934 0.261461
vt 0.261403 0.001992
vt 0.261403 0.044814
vt 0.220687 0.261461
vt 0.261403 0.261461
vt 0.268913 0.218639
vt 0.312255 0.218639
vt 0.312255 0.261461
vt 0.268913 0.261461
vt 0.268913 0.001992
vt 0.312255 0.001992
vt 0.491424 0.218639
vt 0.491424 0.261461
vt 0.491424 0.001992
vt 0.528383 0.218639
vt 0.528383 0.261461
vt 0.528383 0.001992
vt 0.927351 0.528681
vt 0.968910 0.528681
vt 0.968910 0.745335
vt 0.927351 0.745335
vt 0.696856 0.735920
vt 0.696856 0.777479
vt 0.480832 0.777479
vt 0.480832 0.735920
vt 0.696856 0.564120
vt 0.480832 0.564120
vt 0.696856 0.528681
vt 0.480832 0.528681
vt 0.885956 0.998008
vt 0.885956 0.781354
vt 0.921395 0.781354
vt 0.921395 0.998008
vn 0.000080 0.000338 1.000000
vn 0.000018 0.000622 1.000000
vn 0.000047 0.000275 1.000000
vn 0.000078 -0.000004 1.000000
vn 0.000000 1.000000 0.000469
vn 0.000000 1.000000 0.000435
vn 0.000000 1.000000 0.000469
vn 0.000000 1.000000 0.000469
vn 0.000000 0.000000 -1.000000
vn 0.000000 0.000000 -1.000000
vn 0.000000 0.000000 -1.000000
vn 0.000000 0.000000 -1.000000
vn 0.000000 -1.000000 0.000000
vn 0.000000 -1.000000 0.000000
vn 0.000000 -1.000000 0.000000
vn 0.000000 -1.000000 0.000000
vn 1.000000 0.000000 0.000000
vn 1.000000 0.000000 0.000000
vn 1.000000 0.000000 0.000000
vn 1.000000 0.000000 0.000000
vn -1.000000 0.000000 0.000000
vn -1.000000 0.000000 0.000000
vn -1.000000 0.000000 0.000000
vn -1.000000 0.000000 0.000000
vn 0.000000 1.000000 0.000000
vn 0.000000 1.000000 0.000000
vn 0.000000 1.000000 0.000000
vn 0.000000 1.000000 0.000000
vn 0.000000 1.000000 0.000000
vn 0.000000 1.000000 0.000000
vn 0.000000 1.000000 0.000000
vn 0.000000 1.000000 0.000000
vn 0.000000 1.000000 0.000000
vn 0.000000 1.000000 0.000000
vn 0.000000 1.000000 0.000000
vn 0.000000 1.000000 -0.000000
vn 0.000000 1.000000 0.000000
vn 0.000000 1.000000 0.000000
vn 0.000000 1.000000 0.000000
vn 0.000000 1.000000 0.000000
vn 0.000000 0.000000 -1.000000
vn 0.000000 0.000000 -1.000000
vn 0.000000 0.000000 -1.000000
vn 0.000000 0.000000 -1.000000
vn -1.000000 0.000000 0.000000
vn -1.000000 0.000000 0.000000
vn -1.000000 0.000000 0.000000
vn -1.000000 0.000000 0.000000
vn 0.000000 0.000000 1.000000
vn 0.000000 0.000000 1.000000
vn 0.000000 0.000000 1.000000
vn 0.000000 0.000000 1.000000
vn 1.000000 0.000000 0.000000
vn 1.000000 0.000000 0.000000
vn 1.000000 0.000000 0.000000
vn 1.000000 0.000000 0.000000
vn 0.000000 1.000000 -0.000000
vn 0.000000 1.000000 -0.000000
vn 0.000000 1.000000 -0.000000
vn 0.000000 1.000000 -0.000000
vn 0.000000 0.000000 -1.000000
vn 0.000000 0.000000 -1.000000
vn 0.000000 0.000000 -1.000000
vn 0.000000 0.000000 -1.000000
vn 0.000000 1.000000 0.000469
vn 0.000000 1.000000 0.000434
vn 0.000000 1.000000 0.000469
vn 0.000000 1.000000 0.000469
vn 0.000000 0.000000 1.000000
vn 0.000000 0.000000 1.000000
vn 0.000000 0.000000 1.000000
vn 0.000000 0.000000 1.000000
vn 0.000000 1.000000 -0.000000
vn 0.000000 1.000000 -0.000000
vn 0.000000 1.000000 -0.000000
vn 0.000000 1.000000 -0.000000
vn 0.000000 0.000000 -1.000000
vn 0.000000 0.000000 -1.000000
vn 0.000000 0.000000 -1.000000
vn 0.000000 0.000000 -1.000000
vn 0.000000 -1.000000 0.000000
vn 0.000000 -1.000000 0.000000
vn 0.000000 -1.000000 0.000000
vn 0.000000 -1.000000 0.000000
vn -0.000051 0.000300 1.000000
vn -0.000018 0.000630 1.000000
vn -0.000093 0.000335 1.000000
vn -0.000089 -0.000005 1.000000
vn -0.000089 -0.000070 1.000000
vn -0.000089 -0.000070 1.000000
vn 0.000077 -0.000070 1.000000
vn 0.000077 -0.000070 1.000000
vn -1.000000 0.000000 0.000000
vn -1.000000 0.000000 0.000000
vn 0.000000 0.000000 -1.000000
vn 0.000000 0.000000 -1.000000
vn 0.000000 0.000000 -1.000000
vn 0.000000 0.000000 -1.000000
vn 1.000000 0.000000 0.000000
vn 1.000000 0.000000 0.000000
vn 0.000000 0.999999 -0.001476
vn 0.000000 0.999999 -0.001476
vn 0.999999 -0.001057 -0.000811
vn 0.999999 -0.001057 -0.000811
vn 0.999999 -0.001057 -0.000811
vn 0.999999 -0.001057 -0.000811
vn -0.999980 0.000277 0.006251
vn -0.999980 0.000277 0.006252
vn -0.999980 0.000277 0.006251
vn -0.999980 0.000277 0.006251
s 1
g toilette
usemtl initialShadingGroup
f 1/63/1 32/64/2 35/65/3 36/66/4
s 2
f 13/29/5 27/30/6 28/31/7 16/32/8
s 3
f 37/75/9 38/76/10 31/77/11 7/78/12
s 4
f 7/39/13 31/40/14 32/41/15 1/42/16
s 5
f 2/1/17 8/2/18 40/3/19 33/4/20
s 6
f 7/7/21 1/8/22 36/9/23 37/10/24
s off
f 3/47/25 25/48/26 26/49/27 9/50/28
f 4/59/29 6/57/30 11/58/31 10/60/32
s 7
f 30/53/33 5/51/34 12/52/35 29/54/36
s off
f 5/51/37 3/47/38 9/50/39 12/52/40
f 9/87/41 26/88/42 27/89/43 13/90/44
f 10/13/45 11/14/46 15/15/47 14/16/48
s 8
f 29/91/49 12/92/50 16/93/51 28/94/52
s off
f 12/17/53 9/18/54 13/19/55 16/20/56
f 17/61/57 4/59/58 10/60/59 18/62/60
f 19/99/61 18/100/62 10/101/63 14/102/64
s 2
f 20/34/65 19/33/66 14/37/67 15/38/68
s 8
f 11/97/69 21/95/70 20/96/71 15/98/72
s 7
f 6/57/73 22/55/74 21/56/75 11/58/76
s 3
f 23/82/77 39/81/78 40/84/79 8/85/80
s 4
f 24/44/81 23/43/82 8/45/83 2/46/84
s 1
f 34/68/85 24/67/86 2/71/87 33/72/88
s 2
f 28/31/7 27/30/6 19/33/66 20/34/65
s 8
f 21/95/70 29/91/49 28/94/52 20/96/71
s 7
f 22/55/74 30/53/33 29/54/36 21/56/75
s 3
f 31/77/11 38/76/10 39/81/78 23/82/77
s 4
f 32/41/15 31/40/14 23/43/82 24/44/81
s 1
f 35/65/3 32/64/2 24/67/86 34/68/85
f 17/73/89 34/68/85 33/72/88 4/74/90
f 36/66/4 35/65/3 25/69/91 3/70/92
s 6
f 37/10/24 36/9/23 3/11/93 5/12/94
s 3
f 5/79/95 30/80/96 38/76/10 37/75/9
f 39/81/78 38/76/10 30/80/96 22/83/97
f 40/84/79 39/81/78 22/83/97 6/86/98
s 5
f 33/4/20 40/3/19 6/5/99 4/6/100
s 2
f 19/33/66 27/30/6 35/35/101 34/36/102
s off
f 26/21/103 25/22/104 35/23/105 27/24/106
f 18/25/107 19/26/108 34/27/109 17/28/110
